<mxfile host="app.diagrams.net" modified="2021-04-08T15:31:15.783Z" agent="5.0 (Windows NT 10.0; Win64; x64) AppleWebKit/537.36 (KHTML, like Gecko) Chrome/89.0.4389.114 Safari/537.36" etag="Sm6CCxS4R7pTPW6cVKvX" version="14.5.8" type="github">
  <diagram id="K8M1xYXzgk-rtw9iG3Pb" name="Page-1">
    <mxGraphModel dx="1422" dy="762" grid="1" gridSize="10" guides="1" tooltips="1" connect="1" arrows="1" fold="1" page="1" pageScale="1" pageWidth="827" pageHeight="1169" math="0" shadow="0">
      <root>
        <mxCell id="0" />
        <mxCell id="1" parent="0" />
        <mxCell id="V2qnmemvUosIySRJFTqz-1" value="" style="rounded=0;whiteSpace=wrap;html=1;" vertex="1" parent="1">
          <mxGeometry x="60" y="20" width="520" height="360" as="geometry" />
        </mxCell>
        <mxCell id="V2qnmemvUosIySRJFTqz-2" value="&lt;p style=&quot;line-height: 120% ; font-size: 22px&quot;&gt;&lt;font style=&quot;font-size: 22px&quot;&gt;&lt;u&gt;True positive&lt;/u&gt;&lt;/font&gt;&lt;/p&gt;&lt;p style=&quot;line-height: 120%&quot;&gt;Punctuation correctly placed&lt;/p&gt;" style="rounded=1;whiteSpace=wrap;html=1;align=center;fillColor=#d5e8d4;strokeColor=#82b366;" vertex="1" parent="1">
          <mxGeometry x="90" y="49" width="220" height="140" as="geometry" />
        </mxCell>
        <mxCell id="V2qnmemvUosIySRJFTqz-7" value="&lt;p style=&quot;line-height: 120% ; font-size: 22px&quot;&gt;&lt;font style=&quot;font-size: 22px&quot;&gt;&lt;u&gt;True negative&lt;/u&gt;&lt;/font&gt;&lt;/p&gt;&lt;p style=&quot;line-height: 120%&quot;&gt;Punctuation should not be there and is not there&lt;/p&gt;" style="rounded=1;whiteSpace=wrap;html=1;align=center;fillColor=#d5e8d4;strokeColor=#82b366;" vertex="1" parent="1">
          <mxGeometry x="330" y="210" width="220" height="140" as="geometry" />
        </mxCell>
        <mxCell id="V2qnmemvUosIySRJFTqz-8" value="&lt;p style=&quot;line-height: 120% ; font-size: 22px&quot;&gt;&lt;font style=&quot;font-size: 22px&quot;&gt;&lt;u&gt;False negative&lt;/u&gt;&lt;/font&gt;&lt;/p&gt;&lt;p style=&quot;line-height: 120%&quot;&gt;Punctuation should be there but is not there&lt;/p&gt;" style="rounded=1;whiteSpace=wrap;html=1;align=center;fillColor=#f8cecc;strokeColor=#b85450;" vertex="1" parent="1">
          <mxGeometry x="90" y="210" width="220" height="140" as="geometry" />
        </mxCell>
        <mxCell id="V2qnmemvUosIySRJFTqz-11" style="edgeStyle=orthogonalEdgeStyle;rounded=0;orthogonalLoop=1;jettySize=auto;html=1;exitX=0.5;exitY=1;exitDx=0;exitDy=0;" edge="1" parent="1" source="V2qnmemvUosIySRJFTqz-1" target="V2qnmemvUosIySRJFTqz-1">
          <mxGeometry relative="1" as="geometry" />
        </mxCell>
        <mxCell id="V2qnmemvUosIySRJFTqz-12" value="&lt;p style=&quot;line-height: 120% ; font-size: 22px&quot;&gt;&lt;font style=&quot;font-size: 22px&quot;&gt;&lt;u&gt;False positive&lt;/u&gt;&lt;/font&gt;&lt;/p&gt;&lt;p style=&quot;line-height: 120%&quot;&gt;Punctuation incorrectly placed&lt;/p&gt;" style="rounded=1;whiteSpace=wrap;html=1;align=center;fillColor=#f8cecc;strokeColor=#b85450;" vertex="1" parent="1">
          <mxGeometry x="330" y="49" width="220" height="140" as="geometry" />
        </mxCell>
      </root>
    </mxGraphModel>
  </diagram>
</mxfile>
